<svg width="200" height="200" viewBox="0 0 200 200" fill="none" xmlns="http://www.w3.org/2000/svg">
<g clip-path="url(#clip0_9_71)">
<path d="M170.708 29.2911C152.657 11.1832 127.628 0 99.9992 0C72.4246 0 47.3996 11.1832 29.2922 29.2911C11.1852 47.3988 0 72.3703 0 100C0 127.629 11.1852 152.602 29.2922 170.708C47.3996 188.816 72.4246 200 99.9992 200C127.628 200 152.657 188.816 170.708 170.708C188.816 152.602 200 127.629 200 100C200 72.3703 188.816 47.3988 170.708 29.2911Z" fill="#8E736E"/>
<path d="M75.343 92.9141H64.4553C64.2564 91.5054 63.8504 90.2543 63.2372 89.1605C62.6241 88.0502 61.8369 87.1056 60.8757 86.3267C59.9145 85.5478 58.8042 84.9512 57.5447 84.5369C56.3018 84.1226 54.9512 83.9155 53.4929 83.9155C50.858 83.9155 48.5627 84.5701 46.6072 85.8793C44.6518 87.1719 43.1354 89.0611 42.0582 91.5469C40.9811 94.0161 40.4425 97.0156 40.4425 100.545C40.4425 104.175 40.9811 107.224 42.0582 109.693C43.152 112.162 44.6766 114.027 46.6321 115.286C48.5876 116.546 50.8497 117.175 53.4183 117.175C54.8601 117.175 56.1941 116.985 57.4205 116.604C58.6634 116.223 59.7654 115.667 60.7266 114.938C61.6877 114.192 62.4832 113.289 63.1129 112.229C63.7592 111.168 64.2067 109.958 64.4553 108.599L75.343 108.649C75.0613 110.986 74.357 113.24 73.2301 115.411C72.1198 117.565 70.62 119.496 68.7308 121.202C66.8582 122.893 64.621 124.235 62.0192 125.229C59.4339 126.207 56.509 126.696 53.2443 126.696C48.7036 126.696 44.6435 125.669 41.0639 123.614C37.5009 121.559 34.6837 118.584 32.6122 114.69C30.5573 110.795 29.5298 106.08 29.5298 100.545C29.5298 94.9938 30.5739 90.2708 32.6619 86.3764C34.75 82.482 37.5838 79.5156 41.1634 77.4773C44.7429 75.4223 48.7699 74.3949 53.2443 74.3949C56.1941 74.3949 58.9285 74.8092 61.4474 75.6378C63.983 76.4664 66.2285 77.6761 68.184 79.267C70.1394 80.8414 71.7304 82.772 72.9567 85.0589C74.1996 87.3459 74.995 89.9643 75.343 92.9141ZM110.679 89.7322C110.48 87.727 109.626 86.1693 108.118 85.0589C106.61 83.9486 104.564 83.3935 101.978 83.3935C100.222 83.3935 98.7385 83.642 97.5288 84.1392C96.319 84.6198 95.391 85.291 94.7447 86.1527C94.1149 87.0144 93.8001 87.9922 93.8001 89.0859C93.7669 89.9974 93.9575 90.7929 94.3718 91.4723C94.8027 92.1518 95.391 92.7401 96.1367 93.2372C96.8825 93.7178 97.7442 94.1404 98.7219 94.505C99.6997 94.853 100.744 95.1513 101.854 95.3999L106.428 96.4936C108.649 96.9908 110.687 97.6536 112.543 98.4822C114.399 99.3108 116.007 100.33 117.365 101.54C118.724 102.75 119.777 104.175 120.522 105.815C121.285 107.456 121.674 109.337 121.691 111.458C121.674 114.574 120.879 117.275 119.304 119.562C117.747 121.832 115.493 123.597 112.543 124.857C109.61 126.099 106.072 126.721 101.929 126.721C97.8188 126.721 94.2392 126.091 91.19 124.832C88.1573 123.572 85.7875 121.708 84.0806 119.239C82.3903 116.753 81.5037 113.679 81.4208 110.016H91.8363C91.9523 111.723 92.4412 113.148 93.3029 114.292C94.1812 115.419 95.3496 116.272 96.8079 116.852C98.2828 117.416 99.9483 117.697 101.804 117.697C103.627 117.697 105.21 117.432 106.552 116.902C107.911 116.372 108.963 115.634 109.709 114.69C110.455 113.745 110.828 112.66 110.828 111.433C110.828 110.29 110.488 109.329 109.809 108.55C109.146 107.771 108.168 107.108 106.875 106.561C105.599 106.014 104.033 105.517 102.177 105.07L96.6339 103.678C92.3417 102.634 88.9528 101.001 86.467 98.7805C83.9812 96.5599 82.7466 93.5687 82.7631 89.8068C82.7466 86.7244 83.5669 84.0315 85.2241 81.728C86.8978 79.4245 89.1931 77.6264 92.1097 76.3338C95.0264 75.0412 98.3408 74.3949 102.053 74.3949C105.831 74.3949 109.129 75.0412 111.946 76.3338C114.78 77.6264 116.984 79.4245 118.559 81.728C120.133 84.0315 120.945 86.6996 120.995 89.7322H110.679ZM156.548 89.7322C156.349 87.727 155.495 86.1693 153.987 85.0589C152.479 83.9486 150.433 83.3935 147.847 83.3935C146.091 83.3935 144.608 83.642 143.398 84.1392C142.188 84.6198 141.26 85.291 140.614 86.1527C139.984 87.0144 139.669 87.9922 139.669 89.0859C139.636 89.9974 139.827 90.7929 140.241 91.4723C140.672 92.1518 141.26 92.7401 142.006 93.2372C142.752 93.7178 143.613 94.1404 144.591 94.505C145.569 94.853 146.613 95.1513 147.723 95.3999L152.297 96.4936C154.518 96.9908 156.556 97.6536 158.412 98.4822C160.268 99.3108 161.876 100.33 163.235 101.54C164.593 102.75 165.646 104.175 166.392 105.815C167.154 107.456 167.543 109.337 167.56 111.458C167.543 114.574 166.748 117.275 165.173 119.562C163.616 121.832 161.362 123.597 158.412 124.857C155.479 126.099 151.941 126.721 147.798 126.721C143.688 126.721 140.108 126.091 137.059 124.832C134.026 123.572 131.657 121.708 129.95 119.239C128.259 116.753 127.373 113.679 127.29 110.016H137.705C137.821 111.723 138.31 113.148 139.172 114.292C140.05 115.419 141.219 116.272 142.677 116.852C144.152 117.416 145.817 117.697 147.673 117.697C149.496 117.697 151.079 117.432 152.421 116.902C153.78 116.372 154.833 115.634 155.578 114.69C156.324 113.745 156.697 112.66 156.697 111.433C156.697 110.29 156.357 109.329 155.678 108.55C155.015 107.771 154.037 107.108 152.744 106.561C151.468 106.014 149.902 105.517 148.046 105.07L142.503 103.678C138.211 102.634 134.822 101.001 132.336 98.7805C129.85 96.5599 128.616 93.5687 128.632 89.8068C128.616 86.7244 129.436 84.0315 131.093 81.728C132.767 79.4245 135.062 77.6264 137.979 76.3338C140.896 75.0412 144.21 74.3949 147.922 74.3949C151.7 74.3949 154.998 75.0412 157.816 76.3338C160.649 77.6264 162.853 79.4245 164.428 81.728C166.002 84.0315 166.814 86.6996 166.864 89.7322H156.548Z" fill="#F5F5F5"/>
</g>
<defs>
<clipPath id="clip0_9_71">
<rect width="200" height="200" fill="white"/>
</clipPath>
</defs>
</svg>
