<svg width="200" height="200" viewBox="0 0 200 200" fill="none" xmlns="http://www.w3.org/2000/svg">
<g clip-path="url(#clip0_9_79)">
<path d="M170.708 29.2911C152.657 11.1832 127.628 0 99.9992 0C72.4246 0 47.3996 11.1832 29.2922 29.2911C11.1852 47.3988 0 72.3703 0 100C0 127.629 11.1852 152.602 29.2922 170.708C47.3996 188.816 72.4246 200 99.9992 200C127.628 200 152.657 188.816 170.708 170.708C188.816 152.602 200 127.629 200 100C200 72.3703 188.816 47.3988 170.708 29.2911Z" fill="#8E736E"/>
<path d="M16.7926 116V72.3636H45.6847V79.9702H26.0185V90.3679H43.767V97.9744H26.0185V116H16.7926ZM51.7198 116V83.2727H60.7965V116H51.7198ZM56.2795 79.054C54.93 79.054 53.7724 78.6065 52.8065 77.7116C51.8548 76.8026 51.3789 75.7159 51.3789 74.4517C51.3789 73.2017 51.8548 72.1293 52.8065 71.2344C53.7724 70.3253 54.93 69.8707 56.2795 69.8707C57.6289 69.8707 58.7795 70.3253 59.7312 71.2344C60.6971 72.1293 61.18 73.2017 61.18 74.4517C61.18 75.7159 60.6971 76.8026 59.7312 77.7116C58.7795 78.6065 57.6289 79.054 56.2795 79.054ZM82.8118 128.955C79.8714 128.955 77.3501 128.55 75.2479 127.74C73.1598 126.945 71.4979 125.858 70.2621 124.48C69.0263 123.102 68.2237 121.554 67.8544 119.835L76.2493 118.706C76.505 119.359 76.9098 119.97 77.4638 120.538C78.0178 121.107 78.7493 121.561 79.6584 121.902C80.5817 122.257 81.7038 122.435 83.0249 122.435C84.9993 122.435 86.6257 121.952 87.9041 120.986C89.1967 120.034 89.843 118.436 89.843 116.192V110.205H89.4595C89.0618 111.114 88.4652 111.973 87.6697 112.783C86.8743 113.592 85.8516 114.253 84.6016 114.764C83.3516 115.276 81.8601 115.531 80.1271 115.531C77.6697 115.531 75.4325 114.963 73.4155 113.827C71.4126 112.676 69.8146 110.922 68.6214 108.564C67.4425 106.192 66.853 103.195 66.853 99.5724C66.853 95.8651 67.4567 92.7685 68.6641 90.2827C69.8714 87.7969 71.4766 85.9361 73.4794 84.7003C75.4964 83.4645 77.7053 82.8466 80.1058 82.8466C81.9382 82.8466 83.4723 83.1591 84.7081 83.7841C85.9439 84.3949 86.9382 85.1619 87.6911 86.0852C88.4581 86.9943 89.0476 87.8892 89.4595 88.7699H89.8004V83.2727H98.8132V116.32C98.8132 119.104 98.1314 121.433 96.7678 123.308C95.4041 125.183 93.5149 126.589 91.1001 127.527C88.6996 128.479 85.9368 128.955 82.8118 128.955ZM83.0036 108.713C84.4666 108.713 85.7024 108.351 86.7109 107.626C87.7337 106.888 88.5149 105.837 89.0547 104.473C89.6087 103.095 89.8857 101.447 89.8857 99.5298C89.8857 97.6122 89.6158 95.9503 89.076 94.544C88.5362 93.1236 87.755 92.0227 86.7322 91.2415C85.7095 90.4602 84.4666 90.0696 83.0036 90.0696C81.5121 90.0696 80.255 90.4744 79.2322 91.2841C78.2095 92.0795 77.4354 93.1875 76.9098 94.608C76.3842 96.0284 76.1214 97.669 76.1214 99.5298C76.1214 101.419 76.3842 103.053 76.9098 104.43C77.4496 105.794 78.2237 106.852 79.2322 107.605C80.255 108.344 81.5121 108.713 83.0036 108.713ZM106.036 116V83.2727H114.687V89.0469H115.07C115.752 87.1293 116.888 85.6165 118.479 84.5085C120.07 83.4006 121.974 82.8466 124.19 82.8466C126.434 82.8466 128.344 83.4077 129.921 84.5298C131.498 85.6378 132.549 87.1435 133.075 89.0469H133.415C134.083 87.1719 135.29 85.6733 137.038 84.5511C138.799 83.4148 140.88 82.8466 143.281 82.8466C146.335 82.8466 148.813 83.8196 150.717 85.7656C152.634 87.6974 153.593 90.4389 153.593 93.9901V116H144.538V95.7798C144.538 93.9616 144.055 92.598 143.089 91.6889C142.123 90.7798 140.915 90.3253 139.467 90.3253C137.819 90.3253 136.533 90.8509 135.61 91.902C134.687 92.9389 134.225 94.3097 134.225 96.0142V116H125.425V95.5881C125.425 93.983 124.964 92.7045 124.04 91.7528C123.131 90.8011 121.931 90.3253 120.44 90.3253C119.431 90.3253 118.522 90.581 117.712 91.0923C116.917 91.5895 116.285 92.2926 115.816 93.2017C115.347 94.0966 115.113 95.1477 115.113 96.3551V116H106.036ZM170.095 116.618C168.007 116.618 166.146 116.256 164.513 115.531C162.879 114.793 161.587 113.706 160.635 112.271C159.697 110.822 159.229 109.018 159.229 106.859C159.229 105.041 159.563 103.514 160.23 102.278C160.898 101.043 161.807 100.048 162.957 99.2955C164.108 98.5426 165.415 97.9744 166.878 97.5909C168.355 97.2074 169.903 96.9375 171.523 96.7812C173.426 96.5824 174.96 96.3977 176.125 96.2273C177.29 96.0426 178.135 95.7727 178.661 95.4176C179.186 95.0625 179.449 94.5369 179.449 93.8409V93.7131C179.449 92.3636 179.023 91.3196 178.17 90.581C177.332 89.8423 176.139 89.473 174.591 89.473C172.957 89.473 171.658 89.8352 170.692 90.5597C169.726 91.2699 169.087 92.1648 168.774 93.2443L160.379 92.5625C160.805 90.5739 161.643 88.8551 162.893 87.4062C164.143 85.9432 165.756 84.821 167.73 84.0398C169.719 83.2443 172.02 82.8466 174.634 82.8466C176.452 82.8466 178.192 83.0597 179.854 83.4858C181.53 83.9119 183.014 84.5724 184.307 85.4673C185.614 86.3622 186.643 87.5128 187.396 88.919C188.149 90.3111 188.526 91.9801 188.526 93.9261V116H179.918V111.462H179.662C179.136 112.484 178.433 113.386 177.553 114.168C176.672 114.935 175.614 115.538 174.378 115.979C173.142 116.405 171.714 116.618 170.095 116.618ZM172.695 110.354C174.03 110.354 175.209 110.091 176.232 109.565C177.254 109.026 178.057 108.301 178.639 107.392C179.222 106.483 179.513 105.453 179.513 104.303V100.83C179.229 101.014 178.838 101.185 178.341 101.341C177.858 101.483 177.311 101.618 176.7 101.746C176.089 101.859 175.479 101.966 174.868 102.065C174.257 102.151 173.703 102.229 173.206 102.3C172.141 102.456 171.21 102.705 170.415 103.045C169.619 103.386 169.001 103.848 168.561 104.43C168.121 104.999 167.901 105.709 167.901 106.561C167.901 107.797 168.348 108.741 169.243 109.395C170.152 110.034 171.303 110.354 172.695 110.354Z" fill="#F5F5F5"/>
</g>
<defs>
<clipPath id="clip0_9_79">
<rect width="200" height="200" fill="white"/>
</clipPath>
</defs>
</svg>
