<svg width="200" height="200" viewBox="0 0 200 200" fill="none" xmlns="http://www.w3.org/2000/svg">
<g clip-path="url(#clip0_9_75)">
<path d="M170.708 29.2911C152.657 11.1832 127.628 0 99.9992 0C72.4246 0 47.3996 11.1832 29.2922 29.2911C11.1852 47.3988 0 72.3703 0 100C0 127.629 11.1852 152.602 29.2922 170.708C47.3996 188.816 72.4246 200 99.9992 200C127.628 200 152.657 188.816 170.708 170.708C188.816 152.602 200 127.629 200 100C200 72.3703 188.816 47.3988 170.708 29.2911Z" fill="#8E736E"/>
<path d="M82.1818 90.5469C81.8338 89.3371 81.3449 88.2682 80.7152 87.3402C80.0855 86.3956 79.3149 85.6001 78.4034 84.9538C77.5085 84.291 76.4811 83.7855 75.321 83.4375C74.1776 83.0895 72.9098 82.9155 71.5178 82.9155C68.916 82.9155 66.629 83.5618 64.657 84.8544C62.7015 86.147 61.1768 88.0279 60.0831 90.4972C58.9893 92.9498 58.4425 95.9493 58.4425 99.4957C58.4425 103.042 58.9811 106.058 60.0582 108.544C61.1354 111.03 62.66 112.927 64.6321 114.237C66.6042 115.529 68.9325 116.175 71.6172 116.175C74.0533 116.175 76.1331 115.745 77.8565 114.883C79.5966 114.004 80.9224 112.77 81.8338 111.179C82.7618 109.588 83.2259 107.707 83.2259 105.536L85.4134 105.859H72.2884V97.7557H93.5916V104.169C93.5916 108.643 92.647 112.488 90.7578 115.703C88.8686 118.902 86.2668 121.371 82.9524 123.111C79.638 124.834 75.843 125.696 71.5675 125.696C66.7947 125.696 62.602 124.644 58.9893 122.539C55.3767 120.418 52.5594 117.41 50.5376 113.516C48.5324 109.605 47.5298 104.964 47.5298 99.5952C47.5298 95.4687 48.1264 91.7898 49.3196 88.5582C50.5294 85.3101 52.2197 82.5592 54.3906 80.3054C56.5616 78.0516 59.0888 76.3364 61.9723 75.1598C64.8558 73.9832 67.9796 73.3949 71.3438 73.3949C74.2273 73.3949 76.9119 73.8175 79.3977 74.6626C81.8835 75.4912 84.0876 76.6678 86.0099 78.1925C87.9489 79.7171 89.5315 81.5317 90.7578 83.6364C91.9841 85.7244 92.7713 88.0279 93.1193 90.5469H82.1818ZM103.87 125V86.8182H114.46V125H103.87ZM109.19 81.8963C107.616 81.8963 106.265 81.3743 105.138 80.3303C104.028 79.2696 103.473 78.0019 103.473 76.527C103.473 75.0687 104.028 73.8175 105.138 72.7734C106.265 71.7128 107.616 71.1825 109.19 71.1825C110.764 71.1825 112.107 71.7128 113.217 72.7734C114.344 73.8175 114.907 75.0687 114.907 76.527C114.907 78.0019 114.344 79.2696 113.217 80.3303C112.107 81.3743 110.764 81.8963 109.19 81.8963ZM143.252 86.8182V94.7727H120.258V86.8182H143.252ZM125.478 77.6705H136.068V113.267C136.068 114.245 136.217 115.007 136.515 115.554C136.813 116.084 137.228 116.457 137.758 116.673C138.305 116.888 138.935 116.996 139.647 116.996C140.144 116.996 140.642 116.954 141.139 116.871C141.636 116.772 142.017 116.697 142.282 116.648L143.948 124.528C143.417 124.693 142.672 124.884 141.71 125.099C140.749 125.331 139.581 125.472 138.205 125.522C135.653 125.621 133.416 125.282 131.494 124.503C129.588 123.724 128.105 122.514 127.044 120.874C125.984 119.233 125.462 117.161 125.478 114.659V77.6705Z" fill="#F5F5F5"/>
</g>
<defs>
<clipPath id="clip0_9_75">
<rect width="200" height="200" fill="white"/>
</clipPath>
</defs>
</svg>
