<svg width="200" height="200" viewBox="0 0 200 200" fill="none" xmlns="http://www.w3.org/2000/svg">
<path fill-rule="evenodd" clip-rule="evenodd" d="M101 -0.795502C45.335 -0.795502 0.199997 45.4645 0.199997 102.57C0.199997 148.244 29.09 186.944 69.14 200.624C74.18 201.569 76.025 198.374 76.025 195.629C76.025 193.154 75.935 186.674 75.89 178.034C47.855 184.289 41.915 164.174 41.915 164.174C37.325 152.249 30.71 149.054 30.71 149.054C21.575 142.619 31.385 142.754 31.385 142.754C41.51 143.474 46.82 153.419 46.82 153.419C55.82 169.214 70.4 164.669 76.16 162.014C77.06 155.354 79.67 150.764 82.55 148.199C60.185 145.589 36.65 136.724 36.65 97.1245C36.65 85.8295 40.565 76.6045 47 69.4045C45.965 66.7945 42.5 56.2645 47.99 42.0445C47.99 42.0445 56.45 39.2545 75.71 52.6195C83.765 50.3245 92.36 49.1995 100.955 49.1545C109.505 49.1995 118.145 50.3245 126.2 52.6195C145.46 39.2545 153.875 42.0445 153.875 42.0445C159.365 56.2645 155.9 66.7945 154.865 69.4045C161.3 76.6495 165.215 85.8745 165.215 97.1245C165.215 136.814 141.635 145.544 119.18 148.109C122.78 151.304 126.02 157.604 126.02 167.234C126.02 181.049 125.885 192.209 125.885 195.584C125.885 198.329 127.685 201.569 132.815 200.534C172.955 186.899 201.8 148.2 201.8 102.57C201.8 45.4645 156.665 -0.795502 101 -0.795502Z" fill="#8E736E"/>
</svg>
