<svg width="200" height="200" viewBox="0 0 200 200" fill="none" xmlns="http://www.w3.org/2000/svg">
<path d="M100 0C44.772 0 0 44.782 0 100.004C0 155.235 44.768 200 100 200C155.237 200 200 155.235 200 100.004C200 44.782 155.232 0 100 0ZM127.919 30.876H134.217V43.494H143.07V49.712H127.923L127.919 30.876ZM103.582 30.876H110.14L114.177 37.492L118.213 30.876H124.78V49.716H118.506V40.379L114.177 47.072H114.075L109.738 40.379V49.716H103.582V30.876ZM83.44 30.876H100.824V37.126H95.273V49.716H88.983V37.126H83.44V30.876ZM62.351 30.876H68.646V37.102H74.404V30.876H80.703V49.716H74.404V43.409H68.646V49.716H62.351V30.876ZM143.172 158.995L102.705 170.22L62.282 158.987L53.275 57.98H152.179L143.172 158.995Z" fill="#8E736E"/>
<path d="M102.741 115.098H117.87L116.421 131.032L102.741 134.734L89.06 131.032L88.135 120.812H75.822L77.593 140.528L102.741 147.529L127.889 140.528L131.269 102.866H102.741H86.525L85.399 90.272H102.741H132.395L133.482 78H102.741H72L75.299 115.098H102.741Z" fill="#8E736E"/>
</svg>
