<svg width="200" height="200" viewBox="0 0 200 200" fill="none" xmlns="http://www.w3.org/2000/svg">
<path d="M170.595 29.4042C152.573 11.3253 127.584 0.160004 99.9992 0.160004C72.4687 0.160004 47.4838 11.3253 29.4053 29.4042C11.3273 47.483 0.160004 72.4145 0.160004 100C0.160004 127.585 11.3273 152.518 29.4053 170.595C47.4838 188.674 72.4687 199.84 99.9992 199.84C127.584 199.84 152.573 188.674 170.595 170.595C188.674 152.518 199.84 127.585 199.84 100C199.84 72.4145 188.674 47.483 170.595 29.4042Z" fill="#8E736E"/>
<path fill-rule="evenodd" clip-rule="evenodd" d="M74.4624 100.003C74.4624 85.9058 85.9061 74.4066 100.002 74.4066C114.155 74.4066 125.599 85.9054 125.599 100.003C125.599 114.154 114.155 125.599 100.002 125.599C85.9058 125.599 74.4624 114.154 74.4624 100.003ZM126.429 49.9723H73.6332C60.6419 49.9723 49.9743 60.5854 49.9743 73.634V126.429C49.9743 139.418 60.6423 150.088 73.6332 150.088H126.429C139.476 150.088 150.089 139.418 150.089 126.429V73.634C150.089 60.5854 139.476 49.9723 126.429 49.9723ZM73.6332 55.8882H126.429C136.215 55.8882 144.174 63.847 144.174 73.634V126.429C144.174 136.213 136.215 144.172 126.429 144.172H73.6332C63.8474 144.172 55.889 136.213 55.889 126.429V73.634C55.889 63.847 63.8474 55.8882 73.6332 55.8882ZM131.679 63.3509C128.804 63.3509 126.485 65.6722 126.485 68.5461C126.485 71.4216 128.804 73.7432 131.679 73.7432C134.554 73.7432 136.877 71.4216 136.877 68.5461C136.877 65.6722 134.554 63.3509 131.679 63.3509ZM132.287 100.003C132.287 82.2008 117.86 67.7181 100.002 67.7181C82.2019 67.7181 67.7185 82.2012 67.7185 100.003C67.7185 117.859 82.2023 132.288 100.002 132.288C117.86 132.288 132.287 117.859 132.287 100.003Z" fill="white"/>
</svg>
