<svg width="200" height="200" viewBox="0 0 200 200" fill="none" xmlns="http://www.w3.org/2000/svg">
<g clip-path="url(#clip0_9_83)">
<path d="M170.708 29.2911C152.657 11.1832 127.628 0 99.9992 0C72.4246 0 47.3996 11.1832 29.2922 29.2911C11.1852 47.3988 0 72.3703 0 100C0 127.629 11.1852 152.602 29.2922 170.708C47.3996 188.816 72.4246 200 99.9992 200C127.628 200 152.657 188.816 170.708 170.708C188.816 152.602 200 127.629 200 100C200 72.3703 188.816 47.3988 170.708 29.2911Z" fill="#8E736E"/>
<path d="M81.8082 74.0909H92.4474V109.588C92.4474 112.869 91.71 115.72 90.2351 118.139C88.7768 120.559 86.7467 122.423 84.1449 123.732C81.5431 125.041 78.5187 125.696 75.0717 125.696C72.0059 125.696 69.2218 125.157 66.7195 124.08C64.2337 122.987 62.2616 121.329 60.8033 119.109C59.3449 116.871 58.6241 114.062 58.6406 110.682H69.3544C69.3875 112.024 69.661 113.176 70.1747 114.137C70.705 115.082 71.4259 115.811 72.3374 116.325C73.2654 116.822 74.3591 117.07 75.6186 117.07C76.9444 117.07 78.063 116.789 78.9744 116.225C79.9025 115.645 80.6068 114.8 81.0874 113.69C81.5679 112.579 81.8082 111.212 81.8082 109.588V74.0909ZM128.964 88.7322C128.765 86.727 127.911 85.1693 126.403 84.0589C124.895 82.9486 122.849 82.3935 120.263 82.3935C118.507 82.3935 117.024 82.642 115.814 83.1392C114.604 83.6198 113.676 84.291 113.03 85.1527C112.4 86.0144 112.085 86.9922 112.085 88.0859C112.052 88.9974 112.243 89.7929 112.657 90.4723C113.088 91.1518 113.676 91.7401 114.422 92.2372C115.168 92.7178 116.029 93.1404 117.007 93.505C117.985 93.853 119.029 94.1513 120.139 94.3999L124.713 95.4936C126.934 95.9908 128.972 96.6536 130.828 97.4822C132.684 98.3108 134.292 99.33 135.651 100.54C137.009 101.75 138.062 103.175 138.808 104.815C139.57 106.456 139.959 108.337 139.976 110.458C139.959 113.574 139.164 116.275 137.589 118.562C136.032 120.832 133.778 122.597 130.828 123.857C127.895 125.099 124.357 125.721 120.214 125.721C116.104 125.721 112.524 125.091 109.475 123.832C106.442 122.572 104.073 120.708 102.366 118.239C100.675 115.753 99.7888 112.679 99.706 109.016H110.121C110.237 110.723 110.726 112.148 111.588 113.292C112.466 114.419 113.635 115.272 115.093 115.852C116.568 116.416 118.233 116.697 120.089 116.697C121.912 116.697 123.495 116.432 124.837 115.902C126.196 115.372 127.249 114.634 127.994 113.69C128.74 112.745 129.113 111.66 129.113 110.433C129.113 109.29 128.773 108.329 128.094 107.55C127.431 106.771 126.453 106.108 125.161 105.561C123.884 105.014 122.318 104.517 120.462 104.07L114.919 102.678C110.627 101.634 107.238 100.001 104.752 97.7805C102.266 95.5599 101.032 92.5687 101.048 88.8068C101.032 85.7244 101.852 83.0315 103.509 80.728C105.183 78.4245 107.478 76.6264 110.395 75.3338C113.312 74.0412 116.626 73.3949 120.338 73.3949C124.116 73.3949 127.414 74.0412 130.232 75.3338C133.065 76.6264 135.269 78.4245 136.844 80.728C138.418 83.0315 139.23 85.6996 139.28 88.7322H128.964Z" fill="#F5F5F5"/>
</g>
<defs>
<clipPath id="clip0_9_83">
<rect width="200" height="200" fill="white"/>
</clipPath>
</defs>
</svg>
