<svg width="200" height="200" viewBox="0 0 200 200" fill="none" xmlns="http://www.w3.org/2000/svg">
<path fill-rule="evenodd" clip-rule="evenodd" d="M100 199.9C155.173 199.9 199.9 155.173 199.9 100C199.9 44.8268 155.173 0.100006 100 0.100006C44.8268 0.100006 0.0999985 44.8268 0.0999985 100C0.0999985 155.173 44.8268 199.9 100 199.9Z" fill="#8E736E"/>
<path fill-rule="evenodd" clip-rule="evenodd" d="M100 111.516L157.635 61.5655H42.3654L100 111.516ZM84.4328 105.986L100 118.764L115.323 105.986L157.635 142.254H42.3654L84.4328 105.986ZM38.5231 138.412V65.4078L80.7885 101.91L38.5231 138.412ZM161.477 138.412V65.4078L119.212 101.91L161.477 138.412Z" fill="white"/>
</svg>
