<svg width="200" height="200" viewBox="0 0 200 200" fill="none" xmlns="http://www.w3.org/2000/svg">
<g clip-path="url(#clip0_9_87)">
<path d="M170.708 29.2911C152.657 11.1832 127.628 0 99.9992 0C72.4246 0 47.3996 11.1832 29.2922 29.2911C11.1852 47.3988 0 72.3703 0 100C0 127.629 11.1852 152.602 29.2922 170.708C47.3996 188.816 72.4246 200 99.9992 200C127.628 200 152.657 188.816 170.708 170.708C188.816 152.602 200 127.629 200 100C200 72.3703 188.816 47.3988 170.708 29.2911Z" fill="#8E736E"/>
<path d="M15.7301 78.6364L24.5192 106.264H24.8565L33.6634 78.6364H42.1861L29.6506 115H19.7429L7.18963 78.6364H15.7301ZM66.2894 89.0945C66.1474 87.6622 65.5378 86.5495 64.4606 85.7564C63.3834 84.9633 61.9215 84.5668 60.0749 84.5668C58.8202 84.5668 57.7608 84.7443 56.8967 85.0994C56.0326 85.4427 55.3697 85.9221 54.908 86.5376C54.4582 87.1532 54.2333 87.8516 54.2333 88.6328C54.2096 89.2839 54.3458 89.852 54.6417 90.3374C54.9495 90.8227 55.3697 91.2429 55.9023 91.598C56.435 91.9413 57.0505 92.2431 57.7489 92.5036C58.4473 92.7521 59.1931 92.9652 59.9862 93.1428L63.2532 93.924C64.8394 94.2791 66.2953 94.7526 67.6211 95.3445C68.9469 95.9363 70.0951 96.6643 71.0657 97.5284C72.0363 98.3925 72.788 99.4105 73.3207 100.582C73.8652 101.754 74.1433 103.098 74.1552 104.613C74.1433 106.838 73.5752 108.768 72.4506 110.401C71.338 112.023 69.7281 113.284 67.6211 114.183C65.5259 115.071 62.9987 115.515 60.0394 115.515C57.1038 115.515 54.547 115.065 52.369 114.165C50.2028 113.266 48.5101 111.934 47.2908 110.17C46.0835 108.395 45.4502 106.199 45.391 103.583H52.8306C52.9135 104.802 53.2627 105.82 53.8782 106.637C54.5056 107.442 55.3401 108.052 56.3817 108.466C57.4353 108.868 58.6249 109.07 59.9506 109.07C61.2527 109.07 62.3832 108.88 63.342 108.501C64.3126 108.123 65.0643 107.596 65.5969 106.921C66.1296 106.246 66.396 105.471 66.396 104.595C66.396 103.778 66.1533 103.092 65.668 102.536C65.1945 101.979 64.4961 101.506 63.5728 101.115C62.6613 100.724 61.5427 100.369 60.217 100.05L56.2575 99.0554C53.1916 98.3097 50.771 97.1437 48.9954 95.5575C47.2198 93.9714 46.3379 91.8348 46.3498 89.1477C46.3379 86.946 46.9239 85.0225 48.1076 83.3771C49.3031 81.7318 50.9426 80.4474 53.0259 79.5241C55.1093 78.6009 57.4767 78.1392 60.1282 78.1392C62.8271 78.1392 65.1826 78.6009 67.195 79.5241C69.2191 80.4474 70.7934 81.7318 71.918 83.3771C73.0425 85.0225 73.6225 86.9283 73.658 89.0945H66.2894ZM91.5069 115.533C88.7134 115.533 86.3104 114.941 84.2981 113.757C82.2976 112.562 80.7588 110.904 79.6816 108.786C78.6163 106.667 78.0836 104.228 78.0836 101.47C78.0836 98.6766 78.6222 96.2263 79.6994 94.1193C80.7884 92.0005 82.3332 90.3492 84.3336 89.1655C86.3341 87.9699 88.7134 87.3722 91.4714 87.3722C93.8507 87.3722 95.934 87.8042 97.7214 88.6683C99.5088 89.5324 100.923 90.7457 101.965 92.3082C103.007 93.8707 103.581 95.7055 103.687 97.8125H96.5495C96.3483 96.4512 95.8156 95.3563 94.9515 94.5277C94.0993 93.6873 92.9806 93.267 91.5957 93.267C90.4238 93.267 89.3999 93.5866 88.524 94.2259C87.6599 94.8532 86.9851 95.7706 86.4998 96.978C86.0145 98.1854 85.7718 99.6473 85.7718 101.364C85.7718 103.104 86.0086 104.583 86.4821 105.803C86.9674 107.022 87.648 107.951 88.524 108.59C89.3999 109.229 90.4238 109.549 91.5957 109.549C92.4598 109.549 93.2351 109.371 93.9217 109.016C94.6201 108.661 95.1942 108.146 95.644 107.472C96.1056 106.785 96.4075 105.962 96.5495 105.004H103.687C103.569 107.087 103.001 108.922 101.983 110.508C100.977 112.082 99.5858 113.313 97.8102 114.201C96.0346 115.089 93.9335 115.533 91.5069 115.533ZM120.853 115.533C118.095 115.533 115.709 114.947 113.697 113.775C111.697 112.591 110.152 110.946 109.063 108.839C107.974 106.72 107.429 104.264 107.429 101.47C107.429 98.6529 107.974 96.1908 109.063 94.0838C110.152 91.965 111.697 90.3196 113.697 89.1477C115.709 87.964 118.095 87.3722 120.853 87.3722C123.611 87.3722 125.99 87.964 127.99 89.1477C130.003 90.3196 131.553 91.965 132.642 94.0838C133.731 96.1908 134.276 98.6529 134.276 101.47C134.276 104.264 133.731 106.72 132.642 108.839C131.553 110.946 130.003 112.591 127.99 113.775C125.99 114.947 123.611 115.533 120.853 115.533ZM120.888 109.673C122.143 109.673 123.19 109.318 124.031 108.608C124.871 107.886 125.505 106.903 125.931 105.661C126.369 104.418 126.588 103.003 126.588 101.417C126.588 99.8307 126.369 98.4162 125.931 97.1733C125.505 95.9304 124.871 94.9479 124.031 94.2259C123.19 93.5038 122.143 93.1428 120.888 93.1428C119.622 93.1428 118.556 93.5038 117.692 94.2259C116.84 94.9479 116.195 95.9304 115.757 97.1733C115.331 98.4162 115.118 99.8307 115.118 101.417C115.118 103.003 115.331 104.418 115.757 105.661C116.195 106.903 116.84 107.886 117.692 108.608C118.556 109.318 119.622 109.673 120.888 109.673ZM149.244 115.444C147.172 115.444 145.296 114.911 143.615 113.846C141.946 112.769 140.621 111.188 139.638 109.105C138.667 107.01 138.182 104.441 138.182 101.399C138.182 98.2741 138.685 95.6759 139.691 93.6044C140.698 91.5211 142.035 89.9645 143.704 88.9347C145.385 87.893 147.226 87.3722 149.226 87.3722C150.753 87.3722 152.026 87.6326 153.044 88.1534C154.074 88.6624 154.902 89.3016 155.529 90.071C156.169 90.8286 156.654 91.5743 156.985 92.3082H157.216V78.6364H164.762V115H157.305V110.632H156.985C156.63 111.39 156.127 112.141 155.476 112.887C154.837 113.621 154.002 114.231 152.973 114.716C151.955 115.201 150.712 115.444 149.244 115.444ZM151.641 109.425C152.86 109.425 153.89 109.093 154.73 108.43C155.583 107.756 156.234 106.815 156.684 105.607C157.145 104.4 157.376 102.985 157.376 101.364C157.376 99.742 157.151 98.3333 156.701 97.1378C156.252 95.9422 155.6 95.0189 154.748 94.3679C153.896 93.7169 152.86 93.3913 151.641 93.3913C150.398 93.3913 149.35 93.7287 148.498 94.4034C147.646 95.0781 147.001 96.0133 146.563 97.2088C146.125 98.4044 145.906 99.7893 145.906 101.364C145.906 102.95 146.125 104.353 146.563 105.572C147.013 106.779 147.658 107.726 148.498 108.413C149.35 109.087 150.398 109.425 151.641 109.425ZM183.41 115.533C180.605 115.533 178.19 114.964 176.166 113.828C174.154 112.68 172.603 111.058 171.514 108.963C170.425 106.856 169.881 104.364 169.881 101.488C169.881 98.6825 170.425 96.2204 171.514 94.1016C172.603 91.9827 174.136 90.3314 176.113 89.1477C178.101 87.964 180.433 87.3722 183.108 87.3722C184.908 87.3722 186.583 87.6622 188.133 88.2422C189.696 88.8104 191.057 89.6686 192.217 90.8168C193.389 91.965 194.3 93.4091 194.952 95.1491C195.603 96.8774 195.928 98.9015 195.928 101.222V103.299H172.899V98.6115H188.808C188.808 97.5225 188.571 96.5578 188.098 95.7173C187.624 94.8769 186.967 94.2199 186.127 93.7464C185.298 93.2611 184.334 93.0185 183.233 93.0185C182.085 93.0185 181.067 93.2848 180.179 93.8175C179.303 94.3383 178.616 95.0426 178.119 95.9304C177.622 96.8063 177.367 97.7829 177.356 98.8601V103.317C177.356 104.666 177.604 105.832 178.101 106.815C178.61 107.797 179.327 108.555 180.25 109.087C181.173 109.62 182.268 109.886 183.535 109.886C184.375 109.886 185.144 109.768 185.843 109.531C186.541 109.295 187.139 108.939 187.636 108.466C188.133 107.992 188.512 107.412 188.773 106.726L195.768 107.188C195.413 108.868 194.685 110.336 193.584 111.591C192.495 112.834 191.087 113.804 189.358 114.503C187.642 115.189 185.659 115.533 183.41 115.533Z" fill="#F5F5F5"/>
</g>
<defs>
<clipPath id="clip0_9_87">
<rect width="200" height="200" fill="white"/>
</clipPath>
</defs>
</svg>
